<?xml version="1.0" encoding="UTF-8"?>
<!DOCTYPE svg PUBLIC "-//W3C//DTD SVG 1.1//EN" "http://www.w3.org/Graphics/SVG/1.1/DTD/svg11.dtd">
<svg version="1.1" xmlns="http://www.w3.org/2000/svg" xmlns:xlink="http://www.w3.org/1999/xlink" x="0" y="0" width="1008" height="624" viewBox="0, 0, 1008, 624">


    <g>
      <g>
        <path d="M0,408.361 L20.778,408.361 L47.171,547.066 L73.284,408.361 L93.219,408.361 L59.245,570.652 L35.097,570.652 z" fill="#354731"/>
        <path d="M154.71,573.179 Q138.986,573.179 129.44,567.002 Q119.893,560.824 115.401,547.066 Q110.908,533.308 110.908,509.723 L110.908,468.729 Q110.908,444.862 115.541,431.245 Q120.174,417.627 129.861,411.73 Q139.548,405.834 154.991,405.834 Q171.837,405.834 180.963,412.994 Q190.088,420.154 193.598,434.474 Q197.108,448.793 197.108,472.94 L197.108,487.541 L131.405,487.541 L131.405,515.9 Q131.405,539.204 136.74,548.47 Q142.075,557.736 154.71,557.736 Q165.379,557.736 171.135,550.997 Q176.891,544.258 176.891,526.569 L176.891,515.338 L196.827,515.338 L196.827,524.323 Q196.827,547.909 186.999,560.544 Q177.172,573.179 154.71,573.179 z M176.891,475.748 L176.891,462.271 Q176.891,447.67 175.347,439.247 Q173.803,430.823 169.03,426.05 Q164.256,421.277 154.71,421.277 Q146.006,421.277 140.952,425.067 Q135.898,428.858 133.651,438.264 Q131.405,447.67 131.405,464.798 L131.405,475.748 z" fill="#354731"/>
        <path d="M266.18,624 Q241.19,624 227.573,616.7 Q213.955,609.399 213.955,594.518 Q213.955,583.287 221.676,574.021 Q229.398,564.755 240.629,559.14 Q222.659,554.367 222.659,541.451 Q222.659,533.589 227.292,526.99 Q231.925,520.392 242.033,511.969 Q231.363,504.107 226.449,491.893 Q221.536,479.679 221.536,462.552 Q221.536,437.843 233.048,421.838 Q244.56,405.834 267.022,405.834 Q291.731,405.834 301.839,426.05 Q304.366,421.558 310.683,416.082 Q317.001,410.607 323.74,407.799 L327.951,406.396 L333.567,420.715 Q326.828,421.838 318.545,426.331 Q310.262,430.823 306.893,434.754 Q308.858,440.089 310.403,448.653 Q311.947,457.217 311.947,463.113 Q311.947,489.226 301.277,504.528 Q290.608,519.831 267.303,519.831 Q263.091,519.831 258.458,519.129 Q253.825,518.427 250.737,517.304 Q239.786,528.254 239.786,535.835 Q239.786,539.766 243.015,541.872 Q246.244,543.978 253.264,544.82 L279.096,548.751 Q299.312,551.839 309.56,560.965 Q319.809,570.09 319.809,586.375 Q319.809,605.188 305.349,614.594 Q290.888,624 266.18,624 z M267.303,504.949 Q283.307,504.949 288.642,493.157 Q293.977,481.364 293.977,462.552 Q293.977,420.435 267.303,420.435 Q251.86,420.435 245.964,432.789 Q240.067,445.143 240.067,462.552 Q240.067,504.949 267.303,504.949 z M267.022,607.434 Q284.15,607.434 293.837,602.38 Q303.523,597.326 303.523,586.656 Q303.523,577.671 297.206,572.617 Q290.888,567.563 272.918,564.755 L252.141,561.948 Q242.875,568.686 237.119,575.004 Q231.363,581.321 231.363,589.464 Q231.363,598.73 240.067,603.082 Q248.771,607.434 267.022,607.434 z" fill="#354731"/>
        <path d="M384.668,573.179 Q368.945,573.179 359.398,567.002 Q349.852,560.824 345.359,547.066 Q340.867,533.308 340.867,509.723 L340.867,468.729 Q340.867,444.862 345.5,431.245 Q350.132,417.627 359.819,411.73 Q369.506,405.834 384.949,405.834 Q401.796,405.834 410.921,412.994 Q420.047,420.154 423.556,434.474 Q427.066,448.793 427.066,472.94 L427.066,487.541 L361.364,487.541 L361.364,515.9 Q361.364,539.204 366.698,548.47 Q372.033,557.736 384.668,557.736 Q395.338,557.736 401.094,550.997 Q406.85,544.258 406.85,526.569 L406.85,515.338 L426.785,515.338 L426.785,524.323 Q426.785,547.909 416.958,560.544 Q407.131,573.179 384.668,573.179 z M406.85,475.748 L406.85,462.271 Q406.85,447.67 405.306,439.247 Q403.761,430.823 398.988,426.05 Q394.215,421.277 384.668,421.277 Q375.964,421.277 370.91,425.067 Q365.856,428.858 363.61,438.264 Q361.364,447.67 361.364,464.798 L361.364,475.748 z" fill="#354731"/>
        <path d="M493.331,572.617 Q476.765,572.617 470.447,563.492 Q464.13,554.367 464.13,536.958 L464.13,421.839 L444.194,421.839 L444.194,408.361 L464.13,408.361 L464.13,358.102 L484.626,358.102 L484.626,408.361 L511.581,408.361 L511.581,421.839 L484.626,421.839 L484.626,534.993 Q484.626,547.347 487.434,551.98 Q490.242,556.613 498.946,556.613 Q504.281,556.613 510.739,555.209 L510.739,570.933 Q502.035,572.617 493.331,572.617 z" fill="#354731"/>
        <path d="M561.56,573.179 Q546.96,573.179 537.975,562.79 Q528.99,552.401 528.99,536.958 Q528.99,520.954 535.307,510.565 Q541.625,500.176 554.822,492.033 Q568.018,483.891 594.411,472.098 L594.411,460.586 Q594.411,445.424 592.586,437.001 Q590.761,428.577 586.409,424.927 Q582.057,421.277 574.195,421.277 Q551.452,421.277 551.452,449.074 L551.452,454.69 L531.236,454.409 Q531.517,429.419 541.906,417.627 Q552.294,405.834 575.318,405.834 Q596.658,405.834 605.783,418.75 Q614.908,431.666 614.908,459.463 L614.908,538.362 Q614.908,546.224 615.33,556.332 Q615.751,566.44 616.312,570.652 L598.062,570.652 L594.973,548.189 Q591.323,558.859 582.478,566.019 Q573.634,573.179 561.56,573.179 z M568.018,555.77 Q576.442,555.77 583.321,550.014 Q590.2,544.258 594.411,536.397 L594.411,485.856 Q575.318,495.964 566.755,501.58 Q558.191,507.196 553.839,514.075 Q549.487,520.954 549.487,531.904 Q549.487,543.978 554.681,549.874 Q559.876,555.77 568.018,555.77 z" fill="#354731"/>
        <path d="M694.649,573.179 Q678.926,573.179 665.729,557.736 L665.729,570.652 L645.232,570.652 L645.232,343.22 L665.729,343.22 L665.729,421.839 Q671.064,414.819 678.926,410.327 Q686.787,405.834 696.615,405.834 Q717.954,405.834 725.816,423.523 Q733.678,441.213 733.678,470.414 L733.678,504.669 Q733.678,538.082 724.973,555.63 Q716.269,573.179 694.649,573.179 z M690.999,556.894 Q704.196,556.894 708.548,544.82 Q712.9,532.747 712.9,505.23 L712.9,470.414 Q712.9,444.301 708.548,433.07 Q704.196,421.839 690.718,421.839 Q678.364,421.839 665.729,434.474 L665.729,545.101 Q676.399,556.894 690.999,556.894 z" fill="#354731"/>
        <path d="M764.564,343.22 L785.061,343.22 L785.061,570.652 L764.564,570.652 z" fill="#354731"/>
        <path d="M859.186,573.179 Q843.463,573.179 833.916,567.002 Q824.37,560.824 819.877,547.066 Q815.385,533.308 815.385,509.723 L815.385,468.729 Q815.385,444.862 820.018,431.245 Q824.65,417.627 834.337,411.73 Q844.024,405.834 859.467,405.834 Q876.314,405.834 885.439,412.994 Q894.565,420.154 898.074,434.474 Q901.584,448.793 901.584,472.94 L901.584,487.541 L835.882,487.541 L835.882,515.9 Q835.882,539.204 841.216,548.47 Q846.551,557.736 859.186,557.736 Q869.856,557.736 875.612,550.997 Q881.368,544.258 881.368,526.569 L881.368,515.338 L901.303,515.338 L901.303,524.323 Q901.303,547.909 891.476,560.544 Q881.649,573.179 859.186,573.179 z M881.368,475.748 L881.368,462.271 Q881.368,447.67 879.824,439.247 Q878.279,430.823 873.506,426.05 Q868.733,421.277 859.186,421.277 Q850.482,421.277 845.428,425.067 Q840.374,428.858 838.128,438.264 Q835.882,447.67 835.882,464.798 L835.882,475.748 z" fill="#354731"/>
        <path d="M966.445,573.179 Q947.352,573.179 935.699,560.824 Q924.047,548.47 922.362,527.131 L939.49,521.796 Q941.174,540.328 948.194,549.032 Q955.213,557.736 967.848,557.736 Q978.518,557.736 984.274,551.699 Q990.03,545.662 990.03,534.712 Q990.03,518.707 970.375,502.141 L948.194,483.048 Q936.682,473.502 931.347,464.236 Q926.012,454.97 926.012,442.335 Q926.012,425.208 936.542,415.521 Q947.071,405.834 964.76,405.834 Q982.73,405.834 992.417,417.346 Q1002.104,428.858 1003.227,448.513 L988.626,453.286 Q986.941,421.277 965.602,421.277 Q956.056,421.277 950.44,426.471 Q944.825,431.666 944.825,440.931 Q944.825,448.513 947.632,454.128 Q950.44,459.744 958.021,466.482 L981.045,486.979 Q994.242,498.772 1001.121,509.021 Q1008,519.269 1008,534.15 Q1008,552.682 996.769,562.93 Q985.538,573.179 966.445,573.179 z" fill="#354731"/>
      </g>
      <g>
        <path d="M0,-0 L21.62,-0 L21.62,100.8 L93.219,100.8 L93.219,-0 L114.558,-0 L114.558,227.432 L93.219,227.432 L93.219,116.804 L21.62,116.804 L21.62,227.432 L0,227.432 z" fill="#354731"/>
        <path d="M177.546,-0 L259.815,-0 L259.815,16.566 L199.167,16.566 L199.167,101.923 L248.584,101.923 L248.584,117.647 L199.167,117.647 L199.167,211.427 L260.377,211.427 L260.377,227.432 L177.546,227.432 z" fill="#354731"/>
        <path d="M348.635,-0 L371.097,-0 L419.391,227.432 L398.333,227.432 L387.102,166.503 L332.911,166.503 L321.399,227.432 L300.621,227.432 z M384.294,151.06 L360.147,28.359 L336,151.06 z" fill="#354731"/>
        <path d="M470.306,-0 L491.646,-0 L491.646,211.427 L556.225,211.427 L556.225,227.432 L470.306,227.432 z" fill="#354731"/>
        <path d="M611.913,16.566 L568.953,16.566 L568.953,-0 L675.088,-0 L675.088,16.566 L633.252,16.566 L633.252,227.432 L611.913,227.432 z" fill="#354731"/>
        <path d="M723.195,-0 L744.815,-0 L744.815,100.8 L816.414,100.8 L816.414,-0 L837.753,-0 L837.753,227.432 L816.414,227.432 L816.414,116.804 L744.815,116.804 L744.815,227.432 L723.195,227.432 z" fill="#354731"/>
        <path d="M937.243,151.902 L885.861,-0 L906.638,-0 L947.632,126.351 L986.941,-0 L1008,-0 L958.021,151.902 L958.021,227.432 L937.243,227.432 z" fill="#354731"/>
      </g>
      <path d="M-0,282.925 L1008,282.925 L1008,306.925 L-0,306.925 z" fill="#354731"/>
    </g>

</svg>
